<svg width="34" height="41" viewBox="0 0 34 41" fill="none" xmlns="http://www.w3.org/2000/svg">
<circle cx="17" cy="17" r="12" fill="white"/>
<rect x="19.8176" y="20" width="12.5451" height="15.2704" transform="rotate(45.1057 19.8176 20)" fill="white"/>
<mask id="mask0_427_992" style="mask-type:luminance" maskUnits="userSpaceOnUse" x="0" y="0" width="34" height="41">
<path d="M33.7891 0H0V40.6037H33.7891V0Z" fill="white"/>
</mask>
<g mask="url(#mask0_427_992)">
<path d="M19.7157 14.0189C21.2745 15.5717 21.2745 18.0865 19.7157 19.6392L16.896 22.448L14.0763 19.6392C12.5175 18.0865 12.5175 15.5717 14.0763 14.0189C15.6351 12.4662 18.1597 12.4662 19.7185 14.0189H19.7157Z" fill="#3B6EFB"/>
<path d="M28.8399 4.92995C35.437 11.5013 35.437 22.1568 28.8399 28.7282L26.0203 31.5371L21.4582 26.9926L24.2778 24.1837C28.3557 20.1217 28.3557 13.5365 24.2778 9.47443C20.2 5.41239 13.5892 5.41239 9.5113 9.47443C5.43345 13.5365 5.43345 20.1217 9.5113 24.1837L21.4582 36.0843L16.9182 40.6066L4.23934 27.9769C-1.63946 21.3694 -1.40564 11.2573 4.94634 4.92995C11.5433 -1.64141 22.2403 -1.64141 28.8372 4.92995H28.8399Z" fill="#3B6EFB"/>
</g>
</svg>
