<svg width="144" height="36" viewBox="0 0 144 36" fill="none" xmlns="http://www.w3.org/2000/svg">
<g clip-path="url(#clip0_197_784)">
<mask id="mask0_197_784" style="mask-type:luminance" maskUnits="userSpaceOnUse" x="0" y="0" width="30" height="36">
<path d="M29.3946 0H0V35.3229H29.3946V0Z" fill="white"/>
</mask>
<g mask="url(#mask0_197_784)">
<path d="M17.1513 12.1957C18.5073 13.5465 18.5073 15.7343 17.1513 17.085L14.6983 19.5285L12.2453 17.085C10.8893 15.7343 10.8893 13.5465 12.2453 12.1957C13.6013 10.8449 15.7976 10.8449 17.1537 12.1957H17.1513Z" fill="#3B6EFB"/>
<path d="M25.089 4.28887C30.8281 10.0055 30.8281 19.2753 25.089 24.992L22.6361 27.4355L18.6673 23.4821L21.1203 21.0385C24.6678 17.5048 24.6678 11.776 21.1203 8.24231C17.5728 4.70856 11.8217 4.70856 8.27423 8.24231C4.72672 11.776 4.72672 17.5048 8.27423 21.0385L18.6673 31.3914L14.7178 35.3255L3.68792 24.3384C-1.4263 18.5902 -1.22289 9.79328 4.30297 4.28887C10.0419 -1.42783 19.3478 -1.42783 25.0866 4.28887H25.089Z" fill="#3B6EFB"/>
</g>
<path d="M44.154 25.1523C43.3613 25.1523 42.5992 25.0292 41.8677 24.7832C41.1432 24.5303 40.5076 24.1714 39.9607 23.7065C39.4138 23.2349 39.0208 22.6711 38.7815 22.0149L41.1295 21.1536C41.2253 21.427 41.42 21.6764 41.7138 21.902C42.0079 22.1276 42.3666 22.3087 42.7905 22.4455C43.2143 22.5823 43.6688 22.6506 44.154 22.6506C44.6531 22.6506 45.1178 22.5753 45.5484 22.425C45.986 22.2677 46.338 22.0525 46.6046 21.779C46.8711 21.4989 47.0043 21.1741 47.0043 20.805C47.0043 20.4292 46.8644 20.1216 46.584 19.8823C46.3037 19.6362 45.945 19.4414 45.5074 19.2979C45.07 19.1543 44.6189 19.045 44.154 18.9698C43.1357 18.8126 42.2231 18.5699 41.4166 18.2418C40.6101 17.9137 39.9708 17.4592 39.4992 16.8782C39.0345 16.2972 38.802 15.5453 38.802 14.6225C38.802 13.7545 39.0517 12.9958 39.5506 12.3464C40.0495 11.697 40.7057 11.1912 41.5191 10.829C42.3326 10.4667 43.2107 10.2856 44.154 10.2856C44.9402 10.2856 45.6989 10.4086 46.4302 10.6547C47.1616 10.9007 47.8007 11.2596 48.3475 11.7312C48.9012 12.2029 49.2976 12.7702 49.5369 13.4332L47.1787 14.2842C47.083 14.0108 46.8882 13.7613 46.5942 13.5357C46.3004 13.3102 45.9416 13.1324 45.5177 13.0026C45.0939 12.8659 44.6394 12.7975 44.154 12.7975C43.6688 12.7907 43.2074 12.8693 42.77 13.0333C42.3393 13.1906 41.9874 13.4059 41.7138 13.6793C41.4405 13.9527 41.3037 14.2671 41.3037 14.6225C41.3037 15.0805 41.4303 15.4257 41.6832 15.6581C41.943 15.8905 42.288 16.0614 42.7186 16.1707C43.1492 16.2733 43.6278 16.369 44.154 16.4578C45.111 16.6082 45.9961 16.8611 46.8096 17.2165C47.6231 17.572 48.2757 18.047 48.7678 18.6417C49.26 19.2295 49.506 19.9506 49.506 20.805C49.506 21.6731 49.26 22.4352 48.7678 23.0913C48.2757 23.7408 47.6231 24.2466 46.8096 24.6088C45.9961 24.9711 45.111 25.1523 44.154 25.1523ZM51.5823 14.6328H54.084V24.8857H51.5823V14.6328ZM52.8536 13.3102C52.4845 13.3102 52.1736 13.1906 51.9205 12.9513C51.6677 12.7053 51.5413 12.3977 51.5413 12.0286C51.5413 11.6663 51.6677 11.3621 51.9205 11.1161C52.1736 10.87 52.4812 10.7469 52.8433 10.7469C53.2056 10.7469 53.5098 10.87 53.7559 11.1161C54.0087 11.3621 54.1352 11.6663 54.1352 12.0286C54.1352 12.3977 54.0121 12.7053 53.7661 12.9513C53.52 13.1906 53.2158 13.3102 52.8536 13.3102ZM56.5083 24.8857V14.6328H59.01V15.5453C59.3586 15.1762 59.7754 14.8857 60.2608 14.6738C60.746 14.4551 61.269 14.3457 61.8294 14.3457C62.5403 14.3457 63.1931 14.5132 63.7878 14.8481C64.3892 15.183 64.8677 15.6308 65.2232 16.1912C65.5854 15.6308 66.064 15.183 66.6586 14.8481C67.2533 14.5132 67.9061 14.3457 68.6168 14.3457C69.3688 14.3457 70.0488 14.5303 70.6572 14.8994C71.2724 15.2616 71.7612 15.7504 72.1233 16.3655C72.4924 16.9739 72.677 17.654 72.677 18.4059V24.8857H70.1753V19.0723C70.1753 18.6759 70.0761 18.3136 69.878 17.9855C69.6865 17.6506 69.4269 17.384 69.0988 17.1858C68.7775 16.9807 68.4152 16.8782 68.012 16.8782C67.6087 16.8782 67.2429 16.9773 66.9148 17.1755C66.5937 17.3669 66.3339 17.6266 66.1356 17.9547C65.9375 18.2828 65.8384 18.6554 65.8384 19.0723V24.8857H63.3367V19.0723C63.3367 18.6554 63.2409 18.2828 63.0496 17.9547C62.8581 17.6266 62.5985 17.3669 62.2704 17.1755C61.9423 16.9773 61.5766 16.8782 61.1732 16.8782C60.7768 16.8782 60.4145 16.9807 60.0864 17.1858C59.7583 17.384 59.4951 17.6506 59.297 17.9855C59.1055 18.3136 59.01 18.6759 59.01 19.0723V24.8857H56.5083ZM77.2727 30.0121H74.7709V14.6328H77.2727V15.9349C77.6075 15.4701 78.0176 15.0942 78.503 14.8071C78.9951 14.5132 79.5693 14.3662 80.2255 14.3662C80.9774 14.3662 81.678 14.5063 82.3274 14.7866C82.9767 15.0668 83.5474 15.4565 84.0396 15.9554C84.5385 16.4476 84.9247 17.0183 85.1982 17.6677C85.4784 18.317 85.6185 19.0142 85.6185 19.7592C85.6185 20.5042 85.4784 21.2048 85.1982 21.861C84.9247 22.5172 84.5385 23.0949 84.0396 23.5938C83.5474 24.086 82.9767 24.4722 82.3274 24.7523C81.678 25.0326 80.9774 25.1728 80.2255 25.1728C79.5693 25.1728 78.9951 25.0292 78.503 24.7422C78.0176 24.4483 77.6075 24.0688 77.2727 23.604V30.0121ZM80.1948 16.7757C79.6752 16.7757 79.2104 16.9124 78.8002 17.1858C78.3901 17.4523 78.069 17.8112 77.8365 18.2623C77.6041 18.7134 77.4879 19.2124 77.4879 19.7592C77.4879 20.3061 77.6041 20.8084 77.8365 21.2663C78.069 21.7174 78.3901 22.0798 78.8002 22.3531C79.2104 22.6197 79.6752 22.7531 80.1948 22.7531C80.721 22.7531 81.203 22.6197 81.6404 22.3531C82.0778 22.0866 82.4264 21.7278 82.6862 21.2767C82.946 20.8188 83.0758 20.3129 83.0758 19.7592C83.0758 19.2124 82.946 18.7134 82.6862 18.2623C82.4264 17.8112 82.0778 17.4523 81.6404 17.1858C81.2098 16.9124 80.728 16.7757 80.1948 16.7757ZM87.1063 24.8857V9.50635H89.608V24.8857H87.1063ZM96.4633 25.1523C95.52 25.1523 94.6588 24.9096 93.8796 24.4242C93.1073 23.939 92.4888 23.2862 92.0239 22.466C91.566 21.6458 91.3368 20.7401 91.3368 19.749C91.3368 19.004 91.4702 18.3068 91.7368 17.6574C92.0034 17.0012 92.3691 16.4271 92.8338 15.9349C93.3054 15.4359 93.8523 15.0463 94.4742 14.7661C95.0964 14.4858 95.7593 14.3457 96.4633 14.3457C97.263 14.3457 97.9945 14.5166 98.6574 14.8584C99.3273 15.1933 99.8947 15.6547 100.359 16.2425C100.824 16.8303 101.163 17.5002 101.375 18.2521C101.586 19.004 101.634 19.79 101.518 20.6101H94.0231C94.1189 20.993 94.2761 21.3382 94.4947 21.6458C94.7135 21.9466 94.9905 22.1891 95.3253 22.3736C95.6602 22.5514 96.0396 22.6438 96.4633 22.6506C96.9009 22.6573 97.2973 22.5548 97.6526 22.343C98.015 22.1242 98.3158 21.8303 98.5549 21.4612L101.108 22.0559C100.691 22.9649 100.069 23.7101 99.2419 24.291C98.4149 24.8652 97.4886 25.1523 96.4633 25.1523ZM93.9411 18.734H98.9855C98.9104 18.3238 98.7498 17.9547 98.5037 17.6266C98.2644 17.2917 97.9672 17.0251 97.6116 16.8269C97.2562 16.6287 96.8734 16.5296 96.4633 16.5296C96.0532 16.5296 95.6739 16.6287 95.3253 16.8269C94.9767 17.0183 94.6793 17.2815 94.4332 17.6164C94.1941 17.9445 94.0301 18.317 93.9411 18.734ZM103.066 24.8857V10.5316H108.192C108.971 10.5316 109.676 10.7264 110.304 11.1161C110.94 11.5057 111.442 12.0286 111.812 12.6847C112.181 13.3409 112.365 14.0621 112.365 14.8481C112.365 15.6547 112.174 16.386 111.791 17.0422C111.415 17.6916 110.909 18.2111 110.274 18.6007C109.638 18.9834 108.944 19.1748 108.192 19.1748H105.567V24.8857H103.066ZM105.567 16.6731H107.926C108.281 16.6731 108.606 16.5843 108.9 16.4065C109.194 16.2288 109.426 15.9896 109.597 15.6888C109.775 15.3881 109.864 15.0532 109.864 14.6841C109.864 14.3081 109.775 13.9698 109.597 13.669C109.426 13.3683 109.194 13.129 108.9 12.9513C108.606 12.7736 108.281 12.6847 107.926 12.6847H105.567V16.6731ZM121.31 14.6328H123.811V24.8857H121.31L121.197 23.6143C120.917 24.0722 120.544 24.4447 120.079 24.7318C119.621 25.0121 119.078 25.1523 118.449 25.1523C117.69 25.1523 116.979 25.0087 116.316 24.7216C115.653 24.4346 115.069 24.0382 114.563 23.5323C114.064 23.0264 113.671 22.4421 113.384 21.779C113.104 21.116 112.964 20.4051 112.964 19.6465C112.964 18.9151 113.097 18.2281 113.363 17.5856C113.637 16.9431 114.016 16.3792 114.502 15.8939C114.987 15.4086 115.547 15.0292 116.183 14.7558C116.819 14.4824 117.502 14.3457 118.234 14.3457C118.91 14.3457 119.515 14.4961 120.048 14.7968C120.588 15.0976 121.046 15.4804 121.422 15.9452L121.31 14.6328ZM118.387 22.7427C118.921 22.7427 119.392 22.6095 119.802 22.343C120.212 22.0764 120.534 21.7174 120.766 21.2663C120.999 20.8084 121.115 20.3061 121.115 19.7592C121.115 19.2056 120.999 18.7032 120.766 18.2521C120.534 17.7941 120.209 17.4318 119.792 17.1653C119.382 16.8987 118.914 16.7654 118.387 16.7654C117.861 16.7654 117.379 16.9021 116.942 17.1755C116.511 17.4421 116.166 17.8009 115.906 18.2521C115.653 18.7032 115.527 19.2056 115.527 19.7592C115.527 20.3129 115.657 20.8152 115.917 21.2663C116.176 21.7174 116.521 22.0764 116.952 22.343C117.39 22.6095 117.868 22.7427 118.387 22.7427ZM125.904 24.8857L125.894 14.6328H128.396L128.406 15.5453C128.755 15.1762 129.172 14.8857 129.657 14.6738C130.142 14.4551 130.665 14.3457 131.226 14.3457C131.601 14.3457 131.978 14.4004 132.353 14.5098L131.369 17.032C131.109 16.9294 130.85 16.8782 130.59 16.8782C130.187 16.8782 129.817 16.9773 129.483 17.1755C129.155 17.3669 128.891 17.6301 128.693 17.965C128.502 18.2931 128.406 18.6588 128.406 19.062V24.8857H125.904ZM142.699 24.8857H139.818L137.481 20.8562L136.045 22.5685V24.8857H133.544V9.50635H136.045V18.6827L139.439 14.6328H142.71L139.193 18.8262L142.699 24.8857Z" fill="#3B6EFB"/>
</g>
<defs>
<clipPath id="clip0_197_784">
<rect width="143.541" height="35.4372" fill="white"/>
</clipPath>
</defs>
</svg>
