<svg width="165" height="41" viewBox="0 0 165 41" fill="none" xmlns="http://www.w3.org/2000/svg">
<mask id="mask0_197_794" style="mask-type:luminance" maskUnits="userSpaceOnUse" x="0" y="0" width="34" height="41">
<path d="M33.8968 0H0.154541V40.8678H33.8968V0Z" fill="white"/>
</mask>
<g mask="url(#mask0_197_794)">
<path d="M19.843 14.11C21.3996 15.6728 21.3996 18.204 19.843 19.7668L17.0272 22.5939L14.2114 19.7668C12.6548 18.204 12.6548 15.6728 14.2114 14.11C15.768 12.5472 18.2892 12.5472 19.8458 14.11H19.843Z" fill="white"/>
<path d="M28.9547 4.96202C35.5424 11.5761 35.5424 22.301 28.9547 28.915L26.139 31.7421L21.583 27.1681L24.3987 24.3409C28.4709 20.2526 28.4709 13.6245 24.3987 9.53608C20.3266 5.44762 13.7249 5.44762 9.65267 9.53608C5.58046 13.6245 5.58046 20.2526 9.65267 24.3409L21.583 36.3189L17.0494 40.8706L4.38801 28.1588C-1.48265 21.5084 -1.24916 11.3305 5.09403 4.96202C11.6818 -1.65205 22.3641 -1.65205 28.952 4.96202H28.9547Z" fill="white"/>
</g>
<path d="M50.8393 29.1005C49.929 29.1005 49.0542 28.9581 48.2146 28.6735C47.383 28.3809 46.6533 27.9656 46.0255 27.4278C45.3979 26.8821 44.9466 26.2298 44.6721 25.4706L47.3672 24.4742C47.4771 24.7904 47.7006 25.079 48.0382 25.34C48.3755 25.601 48.7875 25.8106 49.2738 25.9688C49.7604 26.1271 50.2821 26.2061 50.8393 26.2061C51.412 26.2061 51.9456 26.119 52.4399 25.9451C52.942 25.7631 53.346 25.5141 53.6521 25.1977C53.9581 24.8736 54.1112 24.4979 54.1112 24.0709C54.1112 23.636 53.9503 23.2801 53.6285 23.0032C53.307 22.7185 52.8949 22.4932 52.3928 22.3271C51.8905 22.161 51.3727 22.0345 50.8393 21.9475C49.6701 21.7656 48.6228 21.4849 47.6967 21.1053C46.771 20.7257 46.0374 20.1998 45.496 19.5276C44.9624 18.8554 44.6957 17.9855 44.6957 16.9179C44.6957 15.9135 44.982 15.0357 45.5547 14.2844C46.1276 13.5331 46.8809 12.9479 47.8144 12.5288C48.7482 12.1096 49.7565 11.9001 50.8393 11.9001C51.7415 11.9001 52.6125 12.0424 53.4521 12.3271C54.2915 12.6118 55.0253 13.027 55.6528 13.5727C56.2884 14.1183 56.7436 14.7747 57.0181 15.5418L54.3111 16.5264C54.2014 16.2101 53.9777 15.9214 53.6404 15.6604C53.3029 15.3995 52.891 15.1938 52.4045 15.0436C51.9182 14.8854 51.3962 14.8064 50.8393 14.8064C50.2821 14.7985 49.7526 14.8894 49.2503 15.0792C48.756 15.2611 48.3519 15.5102 48.0382 15.8265C47.7242 16.1428 47.5674 16.5066 47.5674 16.9179C47.5674 17.4477 47.7125 17.8471 48.0027 18.116C48.301 18.3848 48.6973 18.5825 49.1916 18.7091C49.6859 18.8277 50.235 18.9384 50.8393 19.0412C51.9376 19.2152 52.9539 19.5078 53.8874 19.919C54.8212 20.3302 55.5706 20.8799 56.1355 21.5679C56.7004 22.248 56.9829 23.0822 56.9829 24.0709C56.9829 25.0751 56.7004 25.9569 56.1355 26.716C55.5706 27.4674 54.8212 28.0527 53.8874 28.4717C52.9539 28.8909 51.9376 29.1005 50.8393 29.1005ZM59.366 16.9297H62.2378V28.7921H59.366V16.9297ZM60.8254 15.3995C60.4017 15.3995 60.0448 15.2611 59.7545 14.9843C59.4641 14.6996 59.319 14.3437 59.319 13.9167C59.319 13.4975 59.4641 13.1456 59.7545 12.8609C60.0448 12.5762 60.3979 12.4339 60.8138 12.4339C61.2295 12.4339 61.5787 12.5762 61.8611 12.8609C62.1514 13.1456 62.2967 13.4975 62.2967 13.9167C62.2967 14.3437 62.1555 14.6996 61.873 14.9843C61.5906 15.2611 61.2414 15.3995 60.8254 15.3995ZM65.0206 28.7921V16.9297H67.8923V17.9855C68.2925 17.5584 68.771 17.2223 69.3282 16.9772C69.8854 16.7241 70.4855 16.5976 71.129 16.5976C71.9449 16.5976 72.6942 16.7913 73.3769 17.1788C74.0673 17.5663 74.6167 18.0843 75.0246 18.7328C75.4405 18.0843 75.9897 17.5663 76.6723 17.1788C77.3549 16.7913 78.1043 16.5976 78.9204 16.5976C79.7833 16.5976 80.564 16.8111 81.2624 17.2381C81.9685 17.6573 82.5296 18.2227 82.9455 18.9345C83.3692 19.6383 83.581 20.4251 83.581 21.2951V28.7921H80.7093V22.0661C80.7093 21.6074 80.5955 21.1883 80.3679 20.8087C80.1483 20.4212 79.85 20.1128 79.4734 19.8834C79.1046 19.6462 78.6889 19.5276 78.2259 19.5276C77.7628 19.5276 77.3433 19.6422 76.9666 19.8716C76.5978 20.093 76.2996 20.3935 76.0722 20.7731C75.8446 21.1527 75.7307 21.5837 75.7307 22.0661V28.7921H72.859V22.0661C72.859 21.5837 72.7491 21.1527 72.5295 20.7731C72.3099 20.3935 72.0116 20.093 71.635 19.8716C71.2584 19.6422 70.8386 19.5276 70.3758 19.5276C69.9205 19.5276 69.5049 19.6462 69.1282 19.8834C68.7516 20.1128 68.4495 20.4212 68.2219 20.8087C68.0023 21.1883 67.8923 21.6074 67.8923 22.0661V28.7921H65.0206ZM88.8562 34.7233H85.9845V16.9297H88.8562V18.4362C89.2409 17.8985 89.7116 17.4635 90.2686 17.1314C90.8335 16.7913 91.4926 16.6213 92.2458 16.6213C93.109 16.6213 93.9132 16.7834 94.6587 17.1077C95.4039 17.4319 96.0591 17.8827 96.624 18.46C97.197 19.0294 97.6401 19.6897 97.9541 20.441C98.2756 21.1923 98.4365 21.9989 98.4365 22.8609C98.4365 23.7228 98.2756 24.5334 97.9541 25.2926C97.6401 26.0518 97.197 26.7202 96.624 27.2974C96.0591 27.8668 95.4039 28.3137 94.6587 28.6377C93.9132 28.9621 93.109 29.1242 92.2458 29.1242C91.4926 29.1242 90.8335 28.9581 90.2686 28.626C89.7116 28.286 89.2409 27.847 88.8562 27.3092V34.7233ZM92.2106 19.4089C91.6142 19.4089 91.0808 19.5671 90.61 19.8834C90.1392 20.1919 89.7704 20.607 89.5037 21.129C89.2367 21.6509 89.1035 22.2282 89.1035 22.8609C89.1035 23.4936 89.2367 24.0748 89.5037 24.6045C89.7704 25.1265 90.1392 25.5457 90.61 25.862C91.0808 26.1704 91.6142 26.3247 92.2106 26.3247C92.8146 26.3247 93.3679 26.1704 93.87 25.862C94.3723 25.5535 94.7725 25.1385 95.0705 24.6165C95.3687 24.0867 95.5177 23.5015 95.5177 22.8609C95.5177 22.2282 95.3687 21.6509 95.0705 21.129C94.7725 20.607 94.3723 20.1919 93.87 19.8834C93.3757 19.5671 92.8226 19.4089 92.2106 19.4089ZM100.144 28.7921V10.9985H103.016V28.7921H100.144ZM110.886 29.1005C109.803 29.1005 108.814 28.8197 107.92 28.2582C107.033 27.6968 106.323 26.9415 105.789 25.9926C105.264 25.0436 105.001 23.9958 105.001 22.849C105.001 21.987 105.154 21.1804 105.46 20.4291C105.766 19.6699 106.186 19.0056 106.719 18.4362C107.261 17.8589 107.888 17.4082 108.602 17.0839C109.316 16.7597 110.077 16.5976 110.886 16.5976C111.804 16.5976 112.643 16.7953 113.404 17.1907C114.173 17.5782 114.824 18.112 115.358 18.7921C115.891 19.4722 116.28 20.2472 116.523 21.1171C116.766 21.987 116.821 22.8965 116.688 23.8454H108.084C108.194 24.2883 108.375 24.6877 108.626 25.0436C108.877 25.3916 109.195 25.6722 109.579 25.8857C109.964 26.0914 110.399 26.1982 110.886 26.2061C111.388 26.2139 111.843 26.0953 112.251 25.8502C112.667 25.5971 113.012 25.2571 113.287 24.83L116.217 25.5181C115.738 26.5698 115.025 27.4319 114.075 28.1041C113.126 28.7684 112.063 29.1005 110.886 29.1005ZM107.99 21.6747H113.781C113.694 21.2002 113.51 20.7731 113.228 20.3935C112.953 20.006 112.612 19.6976 112.204 19.4683C111.796 19.2389 111.356 19.1243 110.886 19.1243C110.415 19.1243 109.979 19.2389 109.579 19.4683C109.179 19.6897 108.838 19.9942 108.555 20.3817C108.281 20.7613 108.092 21.1923 107.99 21.6747ZM118.465 28.7921V12.1848H124.349C125.244 12.1848 126.052 12.4102 126.774 12.8609C127.504 13.3117 128.08 13.9167 128.504 14.6759C128.927 15.4351 129.139 16.2694 129.139 17.1788C129.139 18.112 128.92 18.9582 128.48 19.7174C128.049 20.4687 127.468 21.0697 126.738 21.5204C126.009 21.9633 125.212 22.1847 124.349 22.1847H121.336V28.7921H118.465ZM121.336 19.2903H124.043C124.451 19.2903 124.824 19.1875 125.161 18.9819C125.499 18.7763 125.766 18.4995 125.962 18.1515C126.166 17.8036 126.268 17.4161 126.268 16.989C126.268 16.5541 126.166 16.1626 125.962 15.8147C125.766 15.4667 125.499 15.1899 125.161 14.9843C124.824 14.7787 124.451 14.6759 124.043 14.6759H121.336V19.2903ZM139.407 16.9297H142.278V28.7921H139.407L139.277 27.3211C138.955 27.8509 138.528 28.2819 137.994 28.614C137.469 28.9383 136.845 29.1005 136.123 29.1005C135.252 29.1005 134.436 28.9344 133.675 28.6023C132.914 28.2701 132.243 27.8115 131.662 27.2262C131.09 26.641 130.639 25.9649 130.309 25.1977C129.987 24.4306 129.826 23.6081 129.826 22.7304C129.826 21.8842 129.979 21.0894 130.285 20.3461C130.599 19.6027 131.035 18.9503 131.592 18.3888C132.149 17.8273 132.792 17.3884 133.522 17.0721C134.252 16.7557 135.036 16.5976 135.876 16.5976C136.653 16.5976 137.347 16.7715 137.959 17.1195C138.579 17.4675 139.104 17.9103 139.536 18.4481L139.407 16.9297ZM136.052 26.3127C136.664 26.3127 137.206 26.1586 137.677 25.8502C138.147 25.5418 138.516 25.1265 138.783 24.6045C139.05 24.0748 139.183 23.4936 139.183 22.8609C139.183 22.2203 139.05 21.6391 138.783 21.1171C138.516 20.5873 138.143 20.1681 137.665 19.8597C137.194 19.5513 136.656 19.3971 136.052 19.3971C135.448 19.3971 134.895 19.5553 134.393 19.8716C133.899 20.18 133.502 20.5952 133.204 21.1171C132.914 21.6391 132.769 22.2203 132.769 22.8609C132.769 23.5015 132.918 24.0826 133.216 24.6045C133.514 25.1265 133.91 25.5418 134.405 25.8502C134.907 26.1586 135.456 26.3127 136.052 26.3127ZM144.681 28.7921L144.669 16.9297H147.541L147.553 17.9855C147.953 17.5584 148.432 17.2223 148.989 16.9772C149.546 16.7241 150.146 16.5976 150.789 16.5976C151.221 16.5976 151.652 16.6608 152.084 16.7874L150.954 19.7055C150.656 19.5869 150.358 19.5276 150.06 19.5276C149.597 19.5276 149.173 19.6422 148.789 19.8716C148.412 20.093 148.11 20.3975 147.882 20.785C147.663 21.1646 147.553 21.5877 147.553 22.0543V28.7921H144.681ZM163.96 28.7921H160.653L157.97 24.1301L156.322 26.1112V28.7921H153.45V10.9985H156.322V21.6153L160.217 16.9297H163.972L159.935 21.7814L163.96 28.7921Z" fill="white"/>
</svg>
