<svg width="248" height="150" viewBox="0 0 248 150" fill="none" xmlns="http://www.w3.org/2000/svg">
<path d="M141.272 92.5094L73.1371 53.1704C71.628 52.3004 71.8175 50.803 73.5574 49.7667C75.2974 48.7614 77.9377 48.6537 79.4473 49.5248L147.583 88.8632C149.092 89.7332 148.903 91.2306 147.156 92.2602C145.417 93.2667 142.783 93.3793 141.272 92.5094Z" fill="#68E1FC"/>
<path d="M242.873 98.4035L160.068 147.824C155.211 150.722 147.281 150.728 142.366 147.824L3.9823 66.5833C-0.818227 63.6286 -1.49505 54.9911 3.14027 53.2565L85.935 6.23111C90.7922 3.33122 98.7236 3.32558 103.639 6.23111L244.253 86.0383C249.156 88.9309 247.729 95.4997 242.873 98.4035Z" fill="#B8B8B8"/>
<path d="M244.131 92.3022L161.055 140.656C156.184 143.491 148.228 143.491 143.298 140.656L3.75261 60.7467C-1.18995 57.9175 -1.24906 53.3245 3.62281 50.4893L86.6925 2.12854C91.5644 -0.706751 99.5196 -0.712275 104.45 2.12854L243.995 82.0382C248.949 84.8735 249.002 89.4669 244.131 92.3022Z" fill="#5F89FC"/>
<path d="M197.18 119.418L159.119 141.573C154.277 143.45 147.619 143.142 143.286 140.668L3.74059 60.7593C-1.19645 57.9301 -1.255 53.3411 3.61631 50.5063L41.6765 28.3565C46.5185 26.4812 53.1718 26.7883 57.5045 29.2629L197.05 109.171C201.986 111.995 202.045 116.589 197.18 119.418Z" fill="#6C8CE4"/>
<path d="M107.567 31.1703L92.2931 40.0651C89.9858 41.4051 86.222 41.4112 83.8695 40.0651L65.1504 29.3448C62.8078 27.9987 62.7774 25.8025 65.0896 24.4818L80.368 15.5931C82.6802 14.247 86.4396 14.247 88.7922 15.5931L107.511 26.3145C109.848 27.6496 109.879 29.8298 107.567 31.1703Z" fill="#FCB522"/>
<path d="M97.6961 36.811L95.1917 38.2748L87.3857 33.8018C86.0633 34.3027 84.6327 34.4497 83.2369 34.226L82.8574 34.1514L82.569 33.994C81.9112 33.6394 76.1185 30.503 74.8028 29.5369C73.4064 28.5245 74.125 27.0071 74.8028 26.0753L68.5903 22.5346L71.0948 21.0769L79.1891 25.7124L78.5368 26.3951C77.8237 27.1529 77.4436 28.0792 77.6364 28.3024C78.4407 28.894 82.078 30.9228 84.5824 32.2833C85.1127 32.2363 85.6198 32.0458 86.0495 31.7315L87.289 30.8621L97.6961 36.811Z" fill="#EEA92A"/>
<path d="M102.376 34.0907L104.881 32.6324L97.064 28.1599C98.1417 27.2137 98.0759 26.2637 97.7672 25.7632L97.6357 25.545L97.3628 25.3782C96.7453 25.0037 91.2609 21.6851 89.5761 20.9311C87.7903 20.1307 85.1699 20.5621 83.5813 20.9311L77.3633 17.3888L74.8335 18.847L82.9284 23.4853L84.1022 23.1019C85.4074 22.686 87.0065 22.4584 87.4009 22.57C88.4129 23.0296 91.9541 25.0998 94.3475 26.5465C94.3116 26.7232 94.1448 27.0524 93.4013 27.396L91.8834 28.1202L102.376 34.0907Z" fill="#EEA92A"/>
<path d="M100.459 35.3137L99.9323 35.6175L72.7896 20.0756L73.3209 19.7673L100.459 35.3137Z" fill="#EEA92A"/>
<path d="M92.1667 40.1358L91.6403 40.444L64.4976 24.9021L65.0289 24.5939L92.1667 40.1358Z" fill="#EEA92A"/>
<path d="M124.872 16.1771L124.341 16.4854L97.2029 0.939028L97.7343 0.62915L124.872 16.1771Z" fill="#EEA92A"/>
<path d="M147.566 135.176L10.7203 56.1665C9.21069 55.2971 9.40016 53.7996 11.1401 52.7689C12.8806 51.763 15.5204 51.6559 17.03 52.527L153.876 131.535C155.385 132.406 155.195 133.903 153.449 134.933C151.709 135.945 149.075 136.046 147.566 135.176Z" fill="#AFC4FE"/>
<path fill-rule="evenodd" clip-rule="evenodd" d="M43.4273 44.9363L42.0044 44.116L52.8009 38.2687C52.0668 38.2831 51.2278 38.235 50.2844 38.1245C49.3404 38.0157 48.5472 37.8859 47.9125 37.7346L49.5503 36.848C50.7887 37.0657 52.0232 37.1745 53.2544 37.1728C54.4829 37.1745 55.5191 37.0855 56.3642 36.9044L57.2806 37.433L43.4273 44.9363ZM57.5043 51.2388L55.8859 52.1154L48.2218 47.6992C48.619 47.4717 49.0675 47.2922 49.5674 47.1563C50.3838 46.9342 51.3129 46.7845 52.3469 46.7094C53.3815 46.6332 54.695 46.6144 56.2875 46.6531C58.7703 46.7094 60.5948 46.6724 61.7586 46.5398C62.9252 46.4084 63.83 46.1675 64.4724 45.8201C65.1435 45.4566 65.5064 45.0335 65.5644 44.5502C65.6197 44.0691 65.3225 43.6394 64.6729 43.2649C63.9858 42.8688 63.192 42.6849 62.2917 42.7119C61.3946 42.7357 60.5125 42.982 59.6436 43.4471L58.3616 42.5136C59.7585 41.869 61.1251 41.5509 62.4579 41.558C63.7936 41.5663 65.0099 41.8873 66.1118 42.5225C67.2221 43.1616 67.7375 43.8686 67.6491 44.6391C67.5629 45.4113 66.9741 46.0913 65.8887 46.6796C65.3363 46.9795 64.6994 47.2187 63.9753 47.3965C63.25 47.5788 62.3729 47.7009 61.3427 47.7683C60.3131 47.8324 58.7703 47.8506 56.7244 47.8208C55.0159 47.7909 53.888 47.7871 53.3406 47.8125C52.7926 47.8379 52.2883 47.8887 51.821 47.9638L57.5043 51.2388ZM62.4336 51.7956L64.0874 52.4916C63.2887 53.108 62.87 53.641 62.8363 54.0962C62.8032 54.5519 63.0711 54.9419 63.64 55.27C64.3133 55.6577 65.1585 55.8356 66.1687 55.8019C67.179 55.7665 68.0921 55.5274 68.9079 55.086C69.6851 54.6651 70.1143 54.194 70.1933 53.672C70.2717 53.1544 69.9839 52.7048 69.3233 52.3248C69.0537 52.169 68.6555 52.0105 68.1285 51.8481L69.7713 51.1355C69.853 51.1963 69.9248 51.2454 69.9812 51.278C70.5904 51.6288 71.324 51.8398 72.1873 51.9171C73.0484 51.9939 73.8687 51.8199 74.6492 51.3984C75.269 51.062 75.6048 50.6815 75.6595 50.2573C75.7147 49.833 75.4612 49.4613 74.9033 49.1387C74.3482 48.8189 73.6787 48.6664 72.8921 48.6808C72.1056 48.6935 71.2422 48.8957 70.3021 49.2873L69.1874 48.3002C70.4998 47.7854 71.7758 47.5335 73.0192 47.5507C74.2598 47.5661 75.3397 47.839 76.256 48.3682C76.8863 48.7316 77.3077 49.1531 77.5143 49.6353C77.727 50.1158 77.6938 50.5898 77.4188 51.0521C77.1426 51.5172 76.6924 51.9171 76.066 52.2568C75.4717 52.5794 74.7978 52.7943 74.0427 52.9042C73.2849 53.013 72.4977 52.9937 71.683 52.8478C72.1812 53.3428 72.3204 53.8614 72.1061 54.4017C71.8929 54.9391 71.3367 55.4511 70.4468 55.9334C69.2427 56.5852 67.849 56.9276 66.2753 56.9569C64.6989 56.9851 63.3489 56.6741 62.2226 56.0251C61.2063 55.4395 60.7257 54.7568 60.7776 53.9791C60.8263 53.1997 61.3781 52.4733 62.4336 51.7956ZM73.6566 62.3557L76.9515 60.5716L71.9227 57.6739L73.4832 56.8282L87.711 55.0341L88.8748 55.7041L79.9348 60.5462L81.503 61.4493L79.9425 62.295L78.3744 61.3913L75.0795 63.176L73.6566 62.3557ZM78.5119 59.7259L84.7194 56.3648L74.8818 57.6346L78.5119 59.7259ZM83.0755 63.7344L84.6984 64.5193C83.945 65.0513 83.5522 65.5489 83.5147 66.0157C83.4799 66.4808 83.7489 66.8796 84.3233 67.2105C85.0155 67.6093 85.9031 67.7761 86.9885 67.7164C88.0739 67.6529 89.1239 67.3463 90.1386 66.7962C91.1053 66.2731 91.6427 65.7312 91.7516 65.17C91.8598 64.6072 91.5439 64.1133 90.8026 63.6864C90.3419 63.4207 89.8045 63.2511 89.1875 63.1749C88.5732 63.1009 87.9629 63.1125 87.3547 63.2069L86.2439 62.3077L94.4499 59.1106L100.19 62.4181L98.5716 63.2947L93.966 60.6406L89.6272 62.301C90.9009 62.3855 91.9173 62.6485 92.6773 63.087C93.6854 63.6665 94.1195 64.3835 93.977 65.2352C93.8345 66.0864 93.1098 66.868 91.7996 67.5778C90.5507 68.2539 89.167 68.6626 87.6491 68.804C85.7904 68.9824 84.2184 68.7007 82.9358 67.9611C81.8846 67.3563 81.3809 66.6713 81.4184 65.9069C81.4566 65.1418 82.0078 64.4188 83.0755 63.7344ZM107.607 70.2678L106.066 69.5309C106.604 69.0979 106.908 68.7306 106.975 68.4323C107.075 67.9473 106.838 67.5424 106.273 67.216C105.817 66.9531 105.262 66.8034 104.612 66.7647C103.777 66.7183 102.861 66.8227 101.855 67.0762C100.848 67.332 99.6498 67.8297 98.2617 68.5693C99.224 68.4306 100.107 68.4223 100.901 68.5466C101.699 68.6698 102.367 68.8858 102.912 69.1984C103.86 69.7458 104.251 70.4374 104.088 71.2731C103.922 72.1072 103.183 72.8805 101.864 73.5964C100.996 74.0659 100.037 74.4105 98.9798 74.6343C97.9193 74.8546 96.9222 74.9154 95.9777 74.8138C95.0359 74.7121 94.214 74.4619 93.5191 74.0598C92.336 73.3787 91.8885 72.5397 92.1769 71.546C92.4674 70.5545 93.8041 69.4105 96.187 68.1208C98.8522 66.6774 101.207 65.8654 103.245 65.6859C105.02 65.5318 106.52 65.8074 107.746 66.5145C108.657 67.0392 109.101 67.6358 109.076 68.3008C109.052 68.9653 108.563 69.6199 107.607 70.2678ZM95.8324 70.1391C95.248 70.454 94.7945 70.8174 94.4686 71.2262C94.1433 71.6349 94.0295 72.021 94.1195 72.3856C94.2118 72.7507 94.4642 73.0545 94.8818 73.2953C95.4883 73.6444 96.2948 73.7858 97.3012 73.7206C98.3076 73.6544 99.3068 73.3544 100.299 72.8159C101.253 72.2994 101.791 71.7708 101.917 71.2289C102.043 70.6876 101.78 70.228 101.126 69.8502C100.484 69.4801 99.6609 69.3144 98.6644 69.3542C97.6679 69.3934 96.7251 69.6552 95.8324 70.1391ZM112.219 71.1599L113.837 70.2833L121.323 74.5972L120.014 75.307C118.344 75.3893 116.368 75.6396 114.094 76.0638C111.818 76.4852 109.665 77.0282 107.628 77.6899C106.191 78.1512 104.74 78.7323 103.288 79.4304L101.832 78.592C102.934 78.0136 104.425 77.4055 106.305 76.7691C108.189 76.1317 110.16 75.6097 112.228 75.2043C114.296 74.7983 116.179 74.5365 117.878 74.4205L112.219 71.1599ZM120.145 80.7854C119.812 80.3059 119.744 79.8547 119.934 79.4321C120.13 79.0106 120.558 78.6174 121.223 78.2583C122.228 77.7142 123.371 77.4325 124.659 77.4099C125.949 77.3889 127.095 77.6645 128.101 78.2445C129.109 78.8256 129.573 79.4829 129.486 80.217C129.402 80.9506 128.857 81.588 127.852 82.1321C127.214 82.4784 126.514 82.7004 125.762 82.7944C125.007 82.8905 124.215 82.8435 123.383 82.6518C123.816 83.2097 123.91 83.7588 123.662 84.3056C123.419 84.8503 122.871 85.354 122.017 85.8169C120.84 86.4549 119.5 86.7891 117.999 86.8216C116.495 86.8526 115.175 86.5405 114.036 85.8832C112.896 85.2264 112.378 84.4796 112.483 83.6395C112.591 82.8004 113.246 82.0542 114.45 81.4018C115.346 80.9169 116.289 80.6197 117.275 80.5136C118.265 80.4048 119.221 80.4971 120.145 80.7854ZM122.739 79.0631C122.084 79.4177 121.726 79.8083 121.66 80.2325C121.596 80.6595 121.845 81.0362 122.413 81.3637C122.966 81.6819 123.62 81.8288 124.378 81.8062C125.137 81.7841 125.813 81.6106 126.41 81.2869C127.033 80.9495 127.378 80.5633 127.445 80.1275C127.512 79.6923 127.275 79.3189 126.732 79.0062C126.186 78.6908 125.527 78.5456 124.757 78.5638C123.99 78.5848 123.317 78.7505 122.739 79.0631ZM115.893 82.2475C115.408 82.5104 115.037 82.817 114.772 83.1705C114.512 83.5229 114.447 83.877 114.582 84.2316C114.715 84.5846 115 84.8884 115.434 85.1386C116.118 85.533 116.938 85.7153 117.898 85.6865C118.857 85.6578 119.738 85.4253 120.54 84.9906C121.356 84.5487 121.804 84.0526 121.888 83.5047C121.967 82.9551 121.663 82.4817 120.976 82.0857C120.301 81.6974 119.486 81.5217 118.522 81.5554C117.559 81.5891 116.682 81.8194 115.893 82.2475ZM124.223 87.9209L125.717 88.6306C125.069 89.1112 124.737 89.5376 124.719 89.9121C124.703 90.2855 124.946 90.6203 125.459 90.9152C125.895 91.1671 126.397 91.3234 126.969 91.3836C127.538 91.4461 128.126 91.4289 128.734 91.3312C129.341 91.2351 130.055 91.0439 130.875 90.7595C131.695 90.4744 132.456 90.1414 133.159 89.7602C133.234 89.7205 133.345 89.6558 133.491 89.5713C132.67 89.7006 131.841 89.7149 131.016 89.6133C130.189 89.5133 129.488 89.2962 128.916 88.967C127.961 88.4158 127.566 87.7253 127.732 86.8946C127.897 86.0671 128.658 85.285 130.012 84.5509C131.413 83.7925 132.882 83.3826 134.428 83.3191C135.968 83.2556 137.261 83.5229 138.304 84.1239C139.053 84.5558 139.5 85.0823 139.639 85.7048C139.781 86.3245 139.564 86.9686 138.993 87.6403C138.423 88.3103 137.291 89.104 135.598 90.021C133.836 90.9754 132.274 91.6438 130.909 92.0244C129.542 92.4066 128.269 92.5596 127.09 92.4906C125.91 92.4215 124.896 92.142 124.044 91.6515C123.139 91.1295 122.699 90.5424 122.726 89.8862C122.756 89.2316 123.255 88.5754 124.223 87.9209ZM136.114 87.97C137.084 87.4447 137.639 86.9034 137.776 86.3466C137.916 85.792 137.68 85.3358 137.064 84.9817C136.428 84.6155 135.574 84.4636 134.496 84.5288C133.418 84.5923 132.39 84.8906 131.413 85.4192C130.536 85.8937 130.045 86.4074 129.938 86.9559C129.83 87.5082 130.107 87.9728 130.762 88.35C131.42 88.729 132.231 88.8919 133.204 88.8383C134.173 88.7864 135.144 88.4953 136.114 87.97ZM139.637 100.378L138.214 99.5581L149.01 93.7108C148.275 93.7257 147.437 93.6765 146.493 93.5671C145.55 93.4578 144.755 93.3274 144.122 93.1766L145.76 92.2895C146.997 92.5077 148.233 92.6165 149.464 92.6154C150.692 92.616 151.728 92.5276 152.574 92.347L153.49 92.875L139.637 100.378ZM151.45 99.5747C153.077 98.6931 154.533 98.0606 155.809 97.6828C157.091 97.305 158.277 97.1299 159.368 97.1597C160.456 97.1873 161.421 97.4453 162.262 97.9297C162.881 98.2871 163.278 98.6809 163.451 99.1145C163.622 99.5459 163.58 100.003 163.319 100.481C163.062 100.958 162.615 101.465 161.982 102.001C161.351 102.538 160.348 103.178 158.984 103.917C157.365 104.793 155.915 105.422 154.643 105.801C153.366 106.183 152.181 106.357 151.086 106.33C149.995 106.304 149.023 106.046 148.177 105.558C147.065 104.917 146.66 104.157 146.972 103.277C147.366 102.211 148.858 100.978 151.45 99.5747ZM152.898 100.417C150.627 101.647 149.338 102.591 149.039 103.251C148.735 103.912 148.913 104.431 149.565 104.807C150.217 105.183 151.143 105.296 152.335 105.147C153.531 104.996 155.258 104.308 157.522 103.082C159.793 101.852 161.081 100.907 161.381 100.247C161.687 99.5874 161.505 99.0659 160.839 98.682C160.187 98.3064 159.333 98.1844 158.284 98.3158C156.959 98.4887 155.161 99.1908 152.898 100.417ZM160.317 112.296L158.894 111.476L169.691 105.629C168.957 105.644 168.118 105.594 167.174 105.485C166.231 105.376 165.438 105.245 164.802 105.094L166.44 104.207C167.679 104.426 168.913 104.534 170.145 104.533C171.372 104.534 172.409 104.445 173.254 104.265L174.171 104.792L160.317 112.296ZM169.459 117.564L168.035 116.744L178.831 110.896C178.097 110.911 177.259 110.862 176.316 110.753C175.373 110.643 174.578 110.513 173.945 110.362L175.582 109.475C176.819 109.693 178.055 109.802 179.285 109.801C180.514 109.801 181.551 109.713 182.396 109.532L183.313 110.06L169.459 117.564Z" fill="#AFC4FE"/>
<path d="M158.625 128.679L21.7793 49.6708C20.2697 48.7997 20.4591 47.3022 22.1991 46.2726C23.9396 45.2657 26.5793 45.1596 28.0889 46.0296L164.935 125.039C166.444 125.909 166.254 127.406 164.508 128.436C162.769 129.448 160.135 129.549 158.625 128.679Z" fill="#AFC4FE"/>
</svg>
