<svg width="103" height="150" viewBox="0 0 103 150" fill="none" xmlns="http://www.w3.org/2000/svg">
<path d="M51.6332 115.55L19.1166 109.167L37.9666 92.4999L70.4832 98.8832L51.6332 115.55Z" fill="#6C8CE4"/>
<path d="M84.1501 121.933L51.6334 115.55L70.4834 98.8834L103 105.267L84.1501 121.933Z" fill="#AFC4FE"/>
<path d="M32.7834 132.2L0.266724 125.817L19.1167 109.167L51.6334 115.55L32.7834 132.2Z" fill="#AFC4FE"/>
<path d="M65.2997 138.583L32.7831 132.2L51.6331 115.55L84.1497 121.933L65.2997 138.583Z" fill="#6C8CE4"/>
<path d="M24.7569 40.25C24.7569 29.0434 33.8419 19.9584 45.0485 19.9584C47.3019 19.9584 49.4619 20.34 51.4869 21.0184C45.1002 23.38 40.4935 29.855 40.4935 37.4717C40.4935 47.0784 47.8102 54.8934 56.8035 54.8934C57.6635 54.8934 58.5019 54.8 59.3252 54.6634C55.6585 58.295 50.6169 60.5417 45.0485 60.5417C33.8419 60.5417 24.7569 51.4567 24.7569 40.25Z" fill="url(#paint0_linear_368_581)"/>
<path d="M46.4402 2.59167C65.7819 2.59167 81.5169 19.4 81.5186 40.0617C81.5186 67.6367 62.1869 90.965 46.4419 116.837C30.6952 90.9667 11.3636 67.6383 11.3636 40.0617C11.3636 19.4 27.1002 2.59167 46.4402 2.59167ZM46.4402 57.485C55.4336 57.485 62.7502 49.6683 62.7502 40.0633C62.7502 30.4567 55.4336 22.6417 46.4402 22.6417C37.4469 22.6417 30.1302 30.4583 30.1302 40.0633C30.1319 49.6683 37.4486 57.485 46.4402 57.485Z" fill="url(#paint1_linear_368_581)"/>
<path d="M46.4402 2.59167C43.5018 2.59167 40.6485 2.985 37.9185 3.715L37.9168 3.71167L47.1552 1.45333C48.3568 1.085 49.5835 0.785 50.8335 0.555L50.9902 0.516667L51.0035 0.521667C52.8935 0.185 54.8285 0 56.8035 0C76.1452 0 91.8802 16.8083 91.8818 37.47C91.8818 65.045 72.5502 88.3733 56.8052 114.245L46.4418 116.837C62.1885 90.9667 81.5185 67.6383 81.5185 40.0617C81.5168 19.4 65.7818 2.59167 46.4402 2.59167Z" fill="url(#paint2_linear_368_581)"/>
<path d="M0.266724 125.789L65.3 138.555V149.972L0.266724 137.372V125.789Z" fill="#B5B5B5"/>
<path d="M65.3002 138.583L103 105.267V116.25L65.3002 150V138.583Z" fill="#CECECD"/>
<defs>
<linearGradient id="paint0_linear_368_581" x1="36.0854" y1="13.436" x2="42.7979" y2="52.7525" gradientUnits="userSpaceOnUse">
<stop stop-color="#3B6EFB"/>
<stop offset="0.7139" stop-color="#1E4671"/>
<stop offset="0.772" stop-color="#6271CF"/>
<stop offset="0.8818" stop-color="#6B79DE"/>
<stop offset="0.9606" stop-color="#3B6494"/>
<stop offset="1" stop-color="#1D3985"/>
</linearGradient>
<linearGradient id="paint1_linear_368_581" x1="56.7831" y1="89.7398" x2="41.0856" y2="15.991" gradientUnits="userSpaceOnUse">
<stop stop-color="#3B6EFB"/>
<stop offset="0.232" stop-color="#5F89FC"/>
<stop offset="0.6727" stop-color="#5F89FC"/>
<stop offset="0.6767" stop-color="#5F89FC"/>
<stop offset="0.7828" stop-color="#5F89FC"/>
<stop offset="0.8759" stop-color="#5F89FC"/>
<stop offset="0.9515" stop-color="#5F89FC"/>
<stop offset="1" stop-color="#5F89FC"/>
</linearGradient>
<linearGradient id="paint2_linear_368_581" x1="66.6053" y1="112.783" x2="64.6875" y2="8.89817" gradientUnits="userSpaceOnUse">
<stop stop-color="#3B6EFB"/>
<stop offset="0.7139" stop-color="#5355B4"/>
<stop offset="0.772" stop-color="#6281CE"/>
<stop offset="0.8818" stop-color="#5984B8"/>
<stop offset="0.9606" stop-color="#6478B8"/>
<stop offset="1" stop-color="#3B6EFB"/>
</linearGradient>
</defs>
</svg>
