<svg width="81" height="150" viewBox="0 0 81 150" fill="none" xmlns="http://www.w3.org/2000/svg">
<rect width="92.0363" height="94.6848" rx="23.6683" transform="matrix(0.83205 0.5547 0 1 4.40771 2.9386)" fill="#D9D9D9"/>
<rect width="91.3741" height="91.3741" rx="23.6683" transform="matrix(0.83205 0.5547 0 1 0 4.63464)" fill="#5F89FC"/>
<path d="M39.7553 56.8772C43.7156 59.5174 47.0486 63.3417 49.7542 68.35C52.4597 73.3583 53.8125 78.1952 53.8125 82.8607C53.8125 87.5261 52.4597 90.5593 49.7542 91.9602C47.0486 93.361 43.7156 92.7413 39.7553 90.1011L32.5208 85.2781V101.537L24.404 96.1255V46.643L39.7553 56.8772ZM39.7553 80.9822C41.4806 82.1324 42.9118 82.3797 44.0489 81.724C45.186 81.0211 45.7546 79.6094 45.7546 77.4887C45.7546 75.3209 45.186 73.1511 44.0489 70.9792C42.9118 68.8073 41.4806 67.1463 39.7553 65.9961L32.5208 61.1731V76.1592L39.7553 80.9822Z" fill="white"/>
</svg>
